<svg xmlns="http://www.w3.org/2000/svg" xmlns:xlink="http://www.w3.org/1999/xlink" width="500" zoomAndPan="magnify" viewBox="0 0 375 374.999991" height="500" preserveAspectRatio="xMidYMid meet" version="1.0"><defs><g/></defs><g fill="#385cc7" fill-opacity="1"><g transform="translate(31.173651, 306.903279)"><g><path d="M 63.632812 -90.902344 L 122.878906 -90.902344 C 135.101562 -90.902344 144.507812 -99.679688 144.507812 -110.964844 C 144.507812 -122.25 133.847656 -130.714844 122.878906 -130.714844 L 63.632812 -130.714844 L 63.632812 -181.496094 L 128.832031 -181.496094 C 140.746094 -181.496094 150.777344 -189.644531 150.777344 -200.929688 C 150.777344 -211.902344 140.746094 -221.304688 128.832031 -221.304688 L 43.882812 -221.304688 C 30.09375 -221.304688 19.75 -210.019531 19.75 -199.046875 L 19.75 -17.242188 C 19.75 -6.582031 29.464844 2.820312 41.691406 2.820312 C 53.601562 2.820312 63.632812 -6.582031 63.632812 -17.242188 Z M 63.632812 -90.902344 "/></g></g></g><g fill="#385cc7" fill-opacity="1"><g transform="translate(132.152771, 306.903279)"><g><path d="M 113.472656 -203.75 C 113.472656 -214.410156 103.128906 -223.8125 91.53125 -223.8125 C 78.992188 -223.8125 69.589844 -214.722656 69.589844 -203.75 L 69.589844 -73.664062 C 69.589844 -50.78125 65.199219 -36.675781 44.199219 -36.675781 C 36.363281 -36.675781 32.285156 -38.554688 25.078125 -38.554688 C 16.300781 -38.554688 4.703125 -31.347656 4.703125 -18.808594 C 4.703125 1.566406 28.839844 2.820312 40.75 2.820312 C 96.546875 2.820312 113.472656 -26.015625 113.472656 -73.664062 Z M 113.472656 -203.75 "/></g></g></g><g fill="#385cc7" fill-opacity="1"><g transform="translate(265.374085, 306.903279)"><g><path d="M 19.75 -17.242188 C 19.75 -6.582031 29.464844 2.820312 41.691406 2.820312 C 53.601562 2.820312 63.632812 -6.582031 63.632812 -17.242188 L 63.632812 -203.75 C 63.632812 -214.410156 53.601562 -223.8125 41.691406 -223.8125 C 29.464844 -223.8125 19.75 -214.410156 19.75 -203.75 Z M 19.75 -17.242188 "/></g></g></g></svg>